<svg width="256" height="38" viewBox="0 0 256 38" fill="none" xmlns="http://www.w3.org/2000/svg">
<path d="M42 0H0V7H42V0Z" fill="#221F20"/>
<path d="M42 15H0V22H42V15Z" fill="#221F20"/>
<path d="M42 31H0V38H42V31Z" fill="#221F20"/>
<path d="M57 0L69 13.2353L81 0H91L74 18.75L91 37.5H81L69 24.2647L57 37.5H47L64 18.75L47 0H57Z" fill="#221F20"/>
<path d="M138 0H96V7H138V0Z" fill="#221F20"/>
<path fill-rule="evenodd" clip-rule="evenodd" d="M96 15H138V38H96V15ZM103 22H131V31H103V22Z" fill="#221F20"/>
<rect x="146" width="110" height="38" fill="#221F20"/>
<path d="M157 7H154V31H173V28H157V15H173V12H157V7Z" fill="white"/>
<path d="M178 28H197V31H178V28Z" fill="white"/>
<path d="M197 20H178V23H197V20Z" fill="white"/>
<path d="M197 12H178V15H197V12Z" fill="white"/>
<path d="M202 12H221V15H205V28H221V31H202V12Z" fill="white"/>
<path d="M228 7H225V31H228V15H244V31H247V12H228V7Z" fill="white"/>
</svg>
